<svg xmlns="http://www.w3.org/2000/svg">
  <defs>
    <g id="nav-corner">
      <path fill-rule="evenodd" clip-rule="evenodd" d="M126.708 33C116.407 33 107.683 25.9828 101.196 17.9808C92.3041 7.01147 78.7209 0 63.5001 0C48.2792 0 34.696 7.01147 25.8041 17.9808C19.3175 25.9828 10.5931 33 0.292236 33H126.708Z" />
    </g>
    <g id="friends">
      <path d="M7.71533 13.6119C7.71906 13.6858 7.70759 13.7597 7.68162 13.829C7.65566 13.8983 7.61573 13.9617 7.56427 14.0153C7.51282 14.0688 7.45091 14.1115 7.38231 14.1406C7.31372 14.1697 7.23987 14.1846 7.16526 14.1845H1.098C0.849696 14.1849 0.608564 14.102 0.413819 13.9493C0.219074 13.7966 0.08217 13.583 0.0253699 13.3434C-0.00999822 13.1794 -0.00836777 13.0096 0.0301445 12.8463C0.0686568 12.683 0.143099 12.5301 0.248148 12.3986C1.2188 11.1226 2.50661 10.118 3.98586 9.48263C3.33641 8.89561 2.83829 8.16287 2.53324 7.34577C2.22818 6.52866 2.12507 5.65099 2.23254 4.78626C2.34001 3.92153 2.65492 3.09492 3.15091 2.37565C3.6469 1.65638 4.30953 1.06541 5.08329 0.652214C5.85705 0.239022 6.71942 0.0156453 7.59818 0.000792542C8.47693 -0.0140602 9.34648 0.180043 10.134 0.566846C10.9215 0.95365 11.6041 1.52189 12.1245 2.22398C12.645 2.92606 12.9881 3.74156 13.1253 4.60215C13.143 4.71788 13.1221 4.83618 13.0657 4.93904C13.0094 5.04191 12.9206 5.12371 12.8131 5.172C11.2872 5.87132 9.9949 6.98873 9.08872 8.3924C8.18254 9.79606 7.70027 11.4274 7.69883 13.0939C7.69883 13.2684 7.69883 13.4402 7.71533 13.6119ZM32.7435 12.3973C31.7751 11.1227 30.4902 10.1186 29.014 9.48263C29.6634 8.89561 30.1616 8.16287 30.4666 7.34577C30.7717 6.52866 30.8748 5.65099 30.7673 4.78626C30.6598 3.92153 30.3449 3.09492 29.8489 2.37565C29.3529 1.65638 28.6903 1.06541 27.9166 0.652214C27.1428 0.239022 26.2804 0.0156453 25.4017 0.000792542C24.5229 -0.0140602 23.6534 0.180043 22.8659 0.566846C22.0783 0.95365 21.3958 1.52189 20.8753 2.22398C20.3549 2.92606 20.0117 3.74156 19.8746 4.60215C19.8569 4.71788 19.8778 4.83618 19.9341 4.93904C19.9905 5.04191 20.0792 5.12371 20.1868 5.172C21.7127 5.87132 23.0049 6.98873 23.9111 8.3924C24.8173 9.79606 25.2996 11.4274 25.301 13.0939C25.301 13.2684 25.301 13.4402 25.2845 13.6119C25.2808 13.6858 25.2923 13.7597 25.3182 13.829C25.3442 13.8983 25.3841 13.9617 25.4356 14.0153C25.487 14.0688 25.5489 14.1115 25.6175 14.1406C25.6861 14.1697 25.76 14.1846 25.8346 14.1845H31.9018C32.1502 14.1849 32.3913 14.102 32.586 13.9493C32.7808 13.7966 32.9177 13.583 32.9745 13.3434C33.0101 13.1791 33.0084 13.009 32.9697 12.8454C32.9309 12.6818 32.856 12.5287 32.7503 12.3973H32.7435ZM20.5044 18.2838C21.5998 17.4522 22.4048 16.3012 22.8062 14.9926C23.2077 13.684 23.1854 12.2836 22.7425 10.9882C22.2996 9.69281 21.4584 8.56756 20.3371 7.7706C19.2158 6.97364 17.8707 6.54504 16.491 6.54504C15.1113 6.54504 13.7662 6.97364 12.6449 7.7706C11.5236 8.56756 10.6824 9.69281 10.2395 10.9882C9.79659 12.2836 9.7743 13.684 10.1757 14.9926C10.5772 16.3012 11.3822 17.4522 12.4775 18.2838C10.5338 19.1187 8.91072 20.5486 7.84597 22.3641C7.7494 22.5299 7.69857 22.718 7.69858 22.9095C7.69859 23.1009 7.74945 23.289 7.84603 23.4548C7.94262 23.6206 8.08153 23.7583 8.24881 23.854C8.41609 23.9497 8.60583 24 8.79896 24H24.2009C24.394 24 24.5838 23.9497 24.751 23.854C24.9183 23.7583 25.0572 23.6206 25.1538 23.4548C25.2504 23.289 25.3013 23.1009 25.3013 22.9095C25.3013 22.718 25.2504 22.5299 25.1539 22.3641C24.0868 20.5474 22.4608 19.1175 20.5141 18.2838H20.5044Z"/>
    </g>
    <g id="mine">
      <path d="M6.17642 3.9419L6.09597 3.86618C5.79842 3.57881 5.39991 3.41979 4.98627 3.42339C4.57262 3.42698 4.17693 3.5929 3.88443 3.8854C3.59193 4.1779 3.42601 4.57358 3.42242 4.98722C3.41882 5.40086 3.57784 5.79936 3.86521 6.0969L3.94094 6.17578C1.23375 9.34202 -0.487436 13.3681 0.123103 17.5976C0.178812 17.8766 0.308931 18.1353 0.499682 18.3464C0.690434 18.5575 0.934718 18.7131 1.20667 18.7967C1.47862 18.8802 1.76811 18.8887 2.04449 18.8212C2.32087 18.7537 2.57386 18.6127 2.77666 18.4132C4.03402 16.9161 5.30085 15.4315 6.66549 14.0306C7.45048 13.2165 8.2761 12.4425 9.13919 11.7116L21.1575 24.5027C21.3022 24.6566 21.4764 24.7799 21.6696 24.8653C21.8629 24.9507 22.0713 24.9964 22.2825 24.9998C22.4938 25.0032 22.7036 24.9641 22.8995 24.885C23.0953 24.8059 23.2733 24.6882 23.4229 24.539L24.5383 23.4237C24.6877 23.2742 24.8055 23.0962 24.8848 22.9003C24.9641 22.7044 25.0032 22.4946 24.9998 22.2833C24.9964 22.072 24.9506 21.8635 24.8651 21.6702C24.7796 21.477 24.6561 21.3029 24.502 21.1582L11.7107 9.14009C12.442 8.27738 13.216 7.4518 14.0298 6.66642C15.3866 5.34439 16.819 4.11544 18.2736 2.90227C18.5084 2.71453 18.6847 2.4636 18.7817 2.17903C18.8787 1.89446 18.8924 1.58809 18.8211 1.29601C18.7499 1.00393 18.5966 0.738301 18.3794 0.530403C18.1622 0.322505 17.8901 0.180995 17.5952 0.12254C13.3672 -0.486412 9.34113 1.23475 6.17642 3.9419Z" />
    </g>
    <g id="earn">
      <path fill-rule="evenodd" clip-rule="evenodd" d="M 11.595 23.804 C 7.398 21.459 4.56 16.972 4.56 11.823 C 4.56 6.673 7.398 2.186 11.595 -0.159 C 5.284 0.193 0.274 5.423 0.274 11.823 C 0.274 18.222 5.284 23.452 11.595 23.804 Z M 18.274 23.823 C 24.901 23.823 30.274 18.45 30.274 11.823 C 30.274 5.195 24.901 -0.177 18.274 -0.177 C 11.646 -0.177 6.274 5.195 6.274 11.823 C 6.274 18.45 11.646 23.823 18.274 23.823 Z M 14.018 17.54 L 17.477 6.782 C 17.477 6.782 24.63 13.818 23.524 15.391 C 22.417 16.963 14.998 16.944 14.018 17.54 Z"></path>
    </g>
    <g id="clicker">
      <path d="M4.99686 8.12384C4.99686 6.13448 5.78713 4.22659 7.19383 2.81989C8.60052 1.4132 10.5084 0.622925 12.4978 0.622925C14.4871 0.622925 16.395 1.4132 17.8017 2.81989C19.2084 4.22659 19.9987 6.13448 19.9987 8.12384C19.9987 8.45541 19.867 8.77339 19.6325 9.00784C19.3981 9.24229 19.0801 9.374 18.7485 9.374C18.417 9.374 18.099 9.24229 17.8646 9.00784C17.6301 8.77339 17.4984 8.45541 17.4984 8.12384C17.4984 6.7976 16.9715 5.52567 16.0337 4.58788C15.0959 3.65008 13.824 3.12323 12.4978 3.12323C11.1715 3.12323 9.89961 3.65008 8.96181 4.58788C8.02401 5.52567 7.49717 6.7976 7.49717 8.12384C7.49717 8.45541 7.36545 8.77339 7.131 9.00784C6.89656 9.24229 6.57857 9.374 6.24701 9.374C5.91545 9.374 5.59747 9.24229 5.36302 9.00784C5.12857 8.77339 4.99686 8.45541 4.99686 8.12384ZM27.3793 16.8749C26.0338 16.9374 24.9993 18.0969 24.9993 19.4424V20.5801C25.0037 20.9027 24.8857 21.215 24.6691 21.4542C24.4525 21.6934 24.1535 21.8417 23.832 21.8693C23.661 21.8806 23.4895 21.8567 23.3281 21.799C23.1667 21.7413 23.019 21.651 22.8939 21.5337C22.7689 21.4165 22.6694 21.2748 22.6014 21.1175C22.5335 20.9601 22.4986 20.7905 22.499 20.6191V16.9452C22.499 15.5998 21.4645 14.4449 20.119 14.3777C19.781 14.3614 19.4431 14.414 19.1259 14.5321C18.8088 14.6503 18.5189 14.8316 18.2739 15.065C18.0288 15.2985 17.8338 15.5793 17.7005 15.8904C17.5672 16.2015 17.4984 16.5365 17.4984 16.8749V19.333C17.5027 19.6557 17.3848 19.968 17.1682 20.2071C16.9516 20.4463 16.6525 20.5946 16.3311 20.6223C16.1601 20.6336 15.9885 20.6097 15.8272 20.552C15.6658 20.4942 15.518 20.404 15.393 20.2867C15.268 20.1695 15.1685 20.0278 15.1005 19.8704C15.0326 19.7131 14.9977 19.5435 14.9981 19.3721V8.19417C14.9981 6.84869 13.9636 5.69386 12.6181 5.62666C12.28 5.61038 11.9422 5.66289 11.625 5.78104C11.3079 5.89918 11.018 6.08048 10.7729 6.31397C10.5279 6.54745 10.3328 6.82825 10.1995 7.13936C10.0663 7.45046 9.9975 7.78539 9.99747 8.12384V26.8355C10.0013 27.1379 9.8979 27.4318 9.70568 27.6652C9.51346 27.8986 9.24481 28.0564 8.94734 28.1107H8.92859C8.74211 28.1316 8.55361 28.0969 8.38678 28.011C8.21995 27.9251 8.08225 27.7918 7.99098 27.6278L4.70932 21.9333C4.03737 20.7676 2.56219 20.2816 1.36516 20.8988C1.06269 21.0527 0.794691 21.2665 0.577497 21.5272C0.360303 21.7879 0.198458 22.0902 0.10182 22.4155C0.00518162 22.7408 -0.0242278 23.0823 0.0153833 23.4193C0.0549945 23.7564 0.162797 24.0818 0.332225 24.3758L5.16876 33.7598C5.27909 33.9478 5.43664 34.1036 5.62578 34.2119C5.81491 34.3201 6.02907 34.3771 6.24701 34.3771H27.4996C27.7319 34.3772 27.9596 34.3127 28.1572 34.1907C28.3548 34.0687 28.5146 33.8941 28.6185 33.6864C28.6748 33.5738 29.9999 31.3329 29.9999 27.334V19.3752C30.0003 19.0365 29.9319 18.7012 29.7988 18.3898C29.6657 18.0783 29.4707 17.7971 29.2256 17.5633C28.9805 17.3295 28.6905 17.1479 28.3731 17.0296C28.0557 16.9112 27.7176 16.8586 27.3793 16.8749Z" />
    </g>
  </defs>
</svg>